<?xml version="1.0" encoding="utf-8"?>
<!DOCTYPE svg PUBLIC "-//W3C//DTD SVG 1.1//EN" "http://www.w3.org/Graphics/SVG/1.1/DTD/svg11.dtd">
<svg version="1.1" xmlns="http://www.w3.org/2000/svg" width="64" height="64" viewBox="0 0 64 64" enable-background="new 0 0 64 64">
 <defs>
  <linearGradient id="gplus_bg" gradientUnits="userSpaceOnUse" x1="0" y1="0" x2="0" y2="64">
   <stop stop-color="#dd4b37"/>
   <stop offset="1" stop-color="#bc2622"/>
  </linearGradient>
 </defs>
 <rect fill="url(#gplus_bg)" width="64" height="64"/>
 <g style="fill: #FFFFFF;">
  <polygon points="53,30 47,30 47,24 43,24 43,30 37,30 37,34 43,34 43,40 47,40 47,34 53,34 	"/>
  <path d="M23.798,51c-2.78,0-5.747-0.504-8.037-2.186c-0.925-0.681-1.625-1.469-2.078-2.354
		c-1.005-1.947-0.768-4.025,0.16-5.946c0.573-1.188,1.616-2.236,3.11-3.107c2.415-1.46,5.394-1.979,8.173-2.167
		c-0.733-1.104-1.139-2.448-0.725-3.766c-1.419,0.045-2.852-0.106-4.166-0.674c-1.049-0.453-1.943-1.063-2.662-1.81
		c-0.719-0.745-1.273-1.609-1.646-2.577c-0.83-2.121-0.687-4.426,0.248-6.487c0.541-1.189,1.359-2.262,2.431-3.193
		C21.83,14.126,25.779,14,29.724,14c2.5,0,4.999,0,7.499,0c0.834-0.013,1.088,0.748,0.307,1.173l-3.168,1.718h-1.457
		c1.886,1.941,2.711,4.698,2.212,7.354c-0.255,1.358-0.933,2.568-1.854,3.586c-0.936,1.035-2.134,1.751-3.02,2.831
		c-0.353,0.428-0.43,1.311-0.028,1.736c1.355,1.419,3.079,2.436,4.456,3.849c2.316,2.379,2.821,5.801,1.327,8.771
		c-0.576,1.145-1.434,2.168-2.538,3.047C30.768,50.229,27.182,51,23.798,51C22.045,51,25.869,51,23.798,51z M26.192,37.744
		c-2.652,0.152-5.881,0.646-7.36,3.143c-1.112,1.892-0.062,4.258,1.571,5.415c1.542,1.094,3.499,1.435,5.353,1.474
		c1.742,0.037,3.728-0.146,5.138-1.283c1.32-1.07,1.961-2.908,1.282-4.529c-0.804-1.886-2.906-3.089-4.51-4.221
		C27.184,37.69,26.674,37.727,26.192,37.744C25.851,37.764,26.522,37.732,26.192,37.744z M24.506,16.749
		c-0.533,0-1.061,0.123-1.572,0.365c-0.517,0.245-0.924,0.556-1.246,0.956c-0.351,0.43-0.586,0.901-0.707,1.401
		c-0.694,2.971,0.419,6.801,2.851,8.71c1.063,0.832,2.536,0.941,3.759,0.412c0.505-0.221,0.927-0.491,1.245-0.808
		c0.45-0.448,0.718-0.929,0.821-1.466c0.584-3.041-0.467-6.874-2.964-8.834C26.059,16.992,25.346,16.749,24.506,16.749
		C23.973,16.749,25.346,16.749,24.506,16.749z"/>
 </g>
</svg>
