<?xml version="1.0" encoding="utf-8"?>
<!DOCTYPE svg PUBLIC "-//W3C//DTD SVG 1.1//EN" "http://www.w3.org/Graphics/SVG/1.1/DTD/svg11.dtd">
<svg version="1.1" xmlns="http://www.w3.org/2000/svg" width="64" height="64" viewBox="0 0 64 64" enable-background="new 0 0 64 64">
 <defs>
  <linearGradient id="twitter_bg" gradientUnits="userSpaceOnUse" x1="0" y1="0" x2="0" y2="64">
   <stop stop-color="#94d5f2"/>
   <stop offset="1" stop-color="#45c0eb"/>
  </linearGradient>
 </defs>
 <rect fill="url(#twitter_bg)" width="64" height="64"/>
 <path fill="#ffffff" d="M51.345,22.967C52.606,43.278,30.128,57.408,12,45.832c4.382,0.359,9.505-1.101,13.049-3.708
	c-4.197-0.355-7.373-3.122-8.315-6.41c1.305,0.164,2.697,0.313,3.851-0.193c-4.328-1.215-6.875-4.4-6.928-9.039
	c1.311,0.716,2.348,1.286,3.925,1.161c-4.082-3.104-5.045-8.266-2.618-12.092c4.59,5.679,11.207,9.109,18.477,9.577
	c-1.098-10.735,9.428-14.051,15.593-8.421c2.235-0.179,4.241-1.289,5.873-2.358c-0.629,2.222-2.289,3.993-3.876,5.141
	c1.91-0.026,3.33-0.57,4.969-1.451C55.236,19.715,53.11,22.105,51.345,22.967z"/>
</svg>
